# xmcd
#
# Track frame offsets: 
#        150
#        4770
#        60840
#        63162
#        128860
#        132910
#        209560
#        215237
#        273987
#        276655
#
# Disc length: 4606 seconds
#
# Revision: 6
# Processed by: cddbd v1.5.2PL0 Copyright (c) Steve Scherf et al.
# Submitted via: ExactAudioCopy v1.1
#
DISCID=9e11fc0a
DTITLE=Dexter Gordon - Live at Carnegie Hall
DYEAR=1978
DGENRE=Jazz
TTITLE0=Introduction To Secret Love (live)
TTITLE1=Dexter Gordon Quartet - Secret Love (live)
TTITLE2=Introduction To End Of A Love Affair (live)
TTITLE3=Dexter Gordon Quartet - The End Of A Love Affair (live)
TTITLE4=Introduction To More Than You Know (live)
TTITLE5=Dexter Gordon Quartet - More Than You Know (live)
TTITLE6=Introduction Tp Blues Up And Down (live)
TTITLE7=Dexter Gordon Quintet - Blues Up And Down (live)
TTITLE8=Introduction To Cheesecake (live)
TTITLE9=Dexter Gordon Quintet - Cheesecake (live)
EXTD=YEAR: 1978
EXTT0=
EXTT1=
EXTT2=
EXTT3=
EXTT4=
EXTT5=
EXTT6=
EXTT7=
EXTT8=
EXTT9=
PLAYORDER=
